<?xml version="1.0" standalone="no"?>
<!DOCTYPE svg PUBLIC "-//W3C//DTD SVG 20010904//EN"
 "http://www.w3.org/TR/2001/REC-SVG-20010904/DTD/svg10.dtd">
<svg version="1.0" xmlns="http://www.w3.org/2000/svg"
viewBox="0 0 80.000000 80.000000"
 preserveAspectRatio="xMidYMid meet">
<metadata>
Created by potrace 1.10, written by Peter Selinger 2001-2011
</metadata>
<g transform="translate(0.000000,80.000000) scale(0.050000,-0.050000)"
fill="#000000" stroke="none">
<path d="M385 1483 c-171 -111 -173 -96 21 -222 185 -120 181 -119 170 -31
-10 86 -12 86 130 0 64 -39 119 -70 123 -70 3 0 2 41 -4 90 -12 105 8 112 157
59 423 -148 547 -677 232 -985 -356 -348 -952 -145 -1012 346 -17 140 -74 143
-69 3 16 -435 558 -733 959 -528 563 288 443 1146 -175 1251 -85 15 -87 17
-93 99 -7 101 -4 101 -127 25 -54 -33 -105 -60 -114 -60 -9 0 -12 27 -7 60 12
81 -15 76 -191 -37z m375 -103 l0 -101 -80 41 c-44 22 -80 47 -80 55 0 12 132
100 155 104 3 1 5 -44 5 -99z m-248 48 c-7 -17 -12 -58 -12 -90 l0 -58 -70 45
-70 45 55 45 c65 53 115 60 97 13z"/>
<path d="M591 962 c-7 -21 -35 -44 -62 -50 -71 -18 -63 -72 11 -72 l60 0 0
-181 c0 -159 4 -181 33 -175 51 9 54 516 3 516 -18 0 -39 -17 -45 -38z"/>
<path d="M790 925 c-7 -41 -17 -95 -22 -120 -11 -55 32 -77 89 -46 95 50 191
-63 131 -155 -41 -62 -149 -55 -178 11 -19 44 -51 58 -76 32 -54 -54 118 -180
213 -156 197 50 153 349 -51 349 -47 0 -58 7 -48 32 7 17 12 40 12 51 0 12 40
17 94 14 78 -6 96 -1 102 28 6 30 -10 35 -124 35 l-130 0 -12 -75z"/>
</g>
</svg>
