<?xml version="1.0" standalone="no"?>
<!DOCTYPE svg PUBLIC "-//W3C//DTD SVG 20010904//EN"
 "http://www.w3.org/TR/2001/REC-SVG-20010904/DTD/svg10.dtd">
<svg version="1.0" xmlns="http://www.w3.org/2000/svg"
 viewBox="0 0 300.000000 300.000000"
 preserveAspectRatio="xMidYMid meet">
<metadata>
Created by potrace 1.10, written by Peter Selinger 2001-2011
</metadata>
<g transform="translate(0.000000,300.000000) scale(0.050000,-0.050000)"
fill="#000000" stroke="none">
<path d="M2710 5988 c-1616 -232 -2698 -1430 -2698 -2988 0 -2668 3213 -3998
5099 -2111 1581 1580 946 4251 -1180 4962 -324 108 -941 177 -1221 137z m684
-219 c2282 -339 3206 -3115 1577 -4740 -1725 -1720 -4653 -577 -4764 1861 -79
1726 1479 3133 3187 2879z"/>
<path d="M1133 3770 c-29 -29 -33 -116 -33 -770 0 -802 2 -816 112 -795 77 15
1267 721 1279 759 25 79 -24 117 -625 468 -637 372 -680 391 -733 338z m617
-497 c231 -134 419 -253 418 -264 -1 -10 -122 -90 -270 -176 -147 -87 -342
-201 -433 -255 l-165 -97 0 519 c0 286 7 519 15 518 8 0 204 -111 435 -245z"/>
<path d="M3344 3783 c-37 -24 -844 -1442 -844 -1485 0 -73 92 -121 155 -81 37
23 845 1444 845 1486 0 72 -93 120 -156 80z"/>
<path d="M3831 3769 c-27 -28 -31 -126 -31 -769 0 -789 1 -800 100 -800 99 0
100 11 100 800 0 789 -1 800 -100 800 -20 0 -51 -14 -69 -31z"/>
<path d="M4431 3769 c-27 -28 -31 -126 -31 -769 0 -789 1 -800 100 -800 99 0
100 11 100 800 0 789 -1 800 -100 800 -20 0 -51 -14 -69 -31z"/>
</g>
</svg>
